<svg width="958" height="185" viewBox="0 0 958 185" fill="none" xmlns="http://www.w3.org/2000/svg">
<path fill-rule="evenodd" clip-rule="evenodd" d="M928.038 92.7623C931.294 94.6305 934.051 94.2403 936.308 91.5917C955.899 67.8172 961.947 45.0694 954.453 23.3481C951.282 14.1584 946.078 7.72679 938.842 4.05337C931.772 0.322434 924.57 -0.277733 917.235 2.25287C909.567 4.8985 904.265 9.5328 901.327 16.1558C898.498 22.5542 898.467 29.7634 901.234 37.7836C903.54 44.4671 907.222 49.4606 912.279 52.7641C917.278 55.9006 922.278 56.6061 927.279 54.8807C929.779 54.018 931.497 55.4821 932.432 59.273C933.252 62.7298 933.151 66.2235 932.131 69.7541C931.111 73.2848 928.939 78.6149 925.617 85.7446C924.033 88.7219 924.84 91.0612 928.038 92.7623ZM500.223 133.131C500.503 136.628 501.832 140.125 504.209 143.622C506.587 147.118 507.776 149.706 507.776 151.384V152.224C507.776 154.881 506.098 156.21 502.741 156.21H460.779C457.423 156.21 455.744 154.881 455.744 152.224V151.384C455.744 149.846 457.073 147.328 459.73 143.831C462.388 140.335 463.577 136.768 463.297 133.131L461.199 95.9954C460.64 85.505 459.241 78.0918 457.003 73.7558C454.765 69.2799 451.338 67.042 446.722 67.042C442.526 67.042 439.309 68.8603 437.071 72.497C434.833 76.1336 433.714 80.9592 433.714 86.9736C434.134 89.9109 434.344 92.8482 434.344 95.7856V133.131C434.344 136.628 435.603 140.125 438.12 143.622C440.638 147.118 441.897 149.706 441.897 151.384V152.224C441.897 154.881 440.218 156.21 436.861 156.21H395.11C391.753 156.21 390.074 154.881 390.074 152.224V151.384C390.074 149.706 391.263 147.118 393.641 143.622C396.159 140.125 397.418 136.628 397.418 133.131V93.2679C397.418 75.7839 392.662 67.042 383.151 67.042C378.535 67.042 375.038 68.8603 372.66 72.497C370.283 76.1336 369.094 80.9592 369.094 86.9736V133.131C369.094 136.628 370.632 140.125 373.709 143.622C376.787 147.118 378.325 149.706 378.325 151.384V152.224C378.325 154.881 376.647 156.21 373.29 156.21H327.972C324.615 156.21 322.936 154.881 322.936 152.224V151.384C322.936 149.706 324.475 147.118 327.552 143.622C330.629 140.125 332.168 136.628 332.168 133.131V91.7992C332.168 89.0018 331.189 86.624 329.23 84.6658C327.412 82.5677 325.594 80.7494 323.775 79.2108C321.957 77.6722 321.048 76.0637 321.048 74.3852V73.7558C321.048 71.9375 322.726 70.1891 326.083 68.5106L357.554 54.0339C360.072 52.915 362.03 52.915 363.429 54.0339C364.828 55.1529 365.527 56.8314 365.527 59.0693V66.6224C371.961 57.6706 381.263 53.1947 393.431 53.1947C408.957 53.1947 420.427 58.9294 427.84 70.3989C430.637 64.9439 434.763 60.7478 440.218 57.8105C445.673 54.7333 451.898 53.1947 458.891 53.1947C469.102 53.1947 477.774 56.6216 484.907 63.4753C492.181 70.3289 496.377 81.5886 497.496 97.2542L500.223 133.131ZM92.5249 55.2928C99.0989 55.2928 103.365 55.8523 105.323 56.9712C107.281 57.9503 108.121 59.6987 107.841 62.2164C107.701 64.1746 107.002 65.7831 105.743 67.042C104.624 68.1609 103.435 68.9302 102.176 69.3499C101.057 69.6296 99.3087 70.0492 96.9309 70.6087C94.6929 71.0283 93.0844 71.378 92.1053 71.6577C98.959 79.4905 102.386 88.1626 102.386 97.6738C102.386 114.039 94.8328 126.068 79.7267 133.761C88.6785 135.719 95.0426 138.586 98.8191 142.363C102.596 145.999 104.484 150.615 104.484 156.21C104.484 164.462 99.2388 171.176 88.7484 176.351C78.258 181.667 65.25 184.324 49.7243 184.324C34.4783 184.324 22.3794 181.946 13.4277 177.191C4.61576 172.435 0.209807 165.651 0.209807 156.839C0.209807 153.203 1.46865 149.986 3.98633 147.188C6.50402 144.391 10.0707 142.992 14.6865 142.992C18.8826 142.992 22.4494 144.601 25.3867 147.818C28.4638 151.035 30.7018 154.601 32.1005 158.518C33.6391 162.434 35.877 166.001 38.8143 169.218C41.8915 172.575 45.5981 174.253 49.9341 174.253C55.3891 174.393 59.6552 172.785 62.7323 169.428C65.8095 166.211 67.3481 161.945 67.3481 156.63C67.3481 146.978 64.4108 141.314 58.5362 139.635C55.459 139.915 52.9413 140.055 50.9831 140.055C36.1568 140.055 23.918 136.138 14.2669 128.306C4.75563 120.473 0 110.332 0 97.8836C0 84.5958 4.75563 73.8257 14.2669 65.5733C23.918 57.3209 36.2966 53.1947 51.4027 53.1947C55.3191 53.1947 61.4735 53.5444 69.8658 54.2437C78.258 54.9431 85.8111 55.2928 92.5249 55.2928ZM35.0378 81.099C35.0378 92.1489 37.2058 102.989 41.5418 113.619C45.8778 124.249 50.7733 129.564 56.2283 129.564C59.7251 129.564 62.4526 128.026 64.4108 124.949C66.5089 121.732 67.5579 117.396 67.5579 111.941C67.5579 102.01 65.3899 91.4495 61.0539 80.2598C56.7179 69.0701 51.6825 63.4753 45.9478 63.4753C42.5908 63.4753 39.9333 65.0138 37.9751 68.091C36.0169 71.1682 35.0378 75.5042 35.0378 81.099ZM180.788 53.1947C186.803 53.1947 191.558 55.1529 195.055 59.0693C198.692 62.9857 200.51 67.9511 200.51 73.9656C200.51 87.1135 195.125 93.6875 184.355 93.6875C180.019 93.6875 176.732 92.7084 174.494 90.7502C172.256 88.6521 170.927 86.3442 170.508 83.8265C170.228 81.3089 169.529 79.0709 168.41 77.1127C167.291 75.0146 165.612 73.9656 163.374 73.9656C158.199 73.9656 155.611 80.6794 155.611 94.1071V133.131C155.611 136.628 157.43 140.125 161.066 143.622C164.843 146.978 166.731 149.496 166.731 151.175V152.014C166.731 154.671 165.053 156 161.696 156H116.587C113.23 156 111.552 154.671 111.552 152.014V151.175C111.552 149.496 112.951 146.978 115.748 143.622C118.545 140.125 119.944 136.628 119.944 133.131V91.3796C119.944 88.5822 119.105 86.2044 117.426 84.2462C115.748 82.288 114.069 80.6095 112.391 79.2108C110.713 77.8121 109.873 76.2735 109.873 74.595V73.9656C109.873 71.5878 111.482 69.5597 114.699 67.8812L144.282 54.0339C147.079 53.0548 149.037 52.9849 150.156 53.8241C151.275 54.6634 151.835 56.2719 151.835 58.6497V73.9656C156.59 60.1183 166.242 53.1947 180.788 53.1947ZM307.219 141.314C306.1 139.216 305.331 136.488 304.911 133.131L300.296 95.5757C298.617 82.5677 293.162 72.2872 283.931 64.7341C274.839 57.0412 263.3 53.1947 249.312 53.1947C237.563 53.1947 227.632 55.2928 219.52 59.4889C211.407 63.5452 207.351 69.6296 207.351 77.7421C207.351 81.7984 208.68 85.0854 211.337 87.6031C214.135 90.1208 217.701 91.3796 222.038 91.3796C226.234 91.3796 229.591 89.9109 232.108 86.9736C234.626 84.0363 236.304 80.8193 237.144 77.3225C238.123 73.8257 239.591 70.6087 241.55 67.6714C243.508 64.7341 246.095 63.2654 249.312 63.2654C254.348 63.2654 257.705 65.7132 259.383 70.6087C261.202 75.5042 262.81 84.8756 264.209 98.7228V99.3523C258.334 95.8555 251.271 94.1071 243.018 94.1071C232.388 94.1071 223.436 96.9745 216.163 102.709C208.89 108.304 205.253 116.137 205.253 126.208C205.253 136.558 208.89 144.461 216.163 149.916C223.576 155.371 233.157 158.098 244.906 158.098C257.355 158.098 266.237 154.462 271.552 147.188C272.391 150.825 274.349 153.413 277.427 154.951C280.644 156.49 285.469 157.259 291.903 157.259C307.709 157.259 315.611 154.951 315.611 150.335C315.611 149.077 315.122 148.028 314.143 147.188C313.164 146.349 312.045 145.65 310.786 145.09C309.667 144.531 308.478 143.272 307.219 141.314ZM264.209 142.782C262.251 145.86 259.663 147.398 256.446 147.398C252.25 147.398 248.893 144.741 246.375 139.425C243.997 133.97 242.808 127.327 242.808 119.494C242.808 115.158 243.788 111.731 245.746 109.213C247.704 106.556 250.292 105.227 253.509 105.227C260.782 105.227 265.118 111.032 266.517 122.641L267.356 132.292C267.356 136.208 266.307 139.705 264.209 142.782ZM690.921 143.622C688.544 140.125 687.215 136.628 686.935 133.131L684.208 97.2542C683.089 81.5886 678.892 70.3289 671.619 63.4753C664.486 56.6216 655.814 53.1947 645.603 53.1947C638.609 53.1947 632.385 54.7333 626.93 57.8105C621.475 60.7478 617.349 64.9439 614.552 70.3989C607.138 58.9294 595.669 53.1947 580.143 53.1947C567.974 53.1947 558.673 57.6706 552.239 66.6224V59.0693C552.239 56.8314 551.54 55.1529 550.141 54.0339C548.742 52.915 546.784 52.915 544.266 54.0339L512.795 68.5106C509.438 70.1891 507.76 71.9375 507.76 73.7558V74.3852C507.76 76.0637 508.669 77.6722 510.487 79.2108C512.306 80.7494 514.124 82.5677 515.942 84.6658C517.9 86.624 518.88 89.0018 518.88 91.7992V133.131C518.88 136.628 517.341 140.125 514.264 143.622C511.187 147.118 509.648 149.706 509.648 151.384V152.224C509.648 154.881 511.327 156.21 514.683 156.21H560.002C563.359 156.21 565.037 154.881 565.037 152.224V151.384C565.037 149.706 563.499 147.118 560.421 143.622C557.344 140.125 555.806 136.628 555.806 133.131V86.9736C555.806 80.9592 556.995 76.1336 559.372 72.497C561.75 68.8603 565.247 67.042 569.863 67.042C579.374 67.042 584.13 75.7839 584.13 93.2679V133.131C584.13 136.628 582.871 140.125 580.353 143.622C577.975 147.118 576.786 149.706 576.786 151.384V152.224C576.786 154.881 578.465 156.21 581.822 156.21H623.573C626.93 156.21 628.609 154.881 628.609 152.224V151.384C628.609 149.706 627.35 147.118 624.832 143.622C622.314 140.125 621.056 136.628 621.056 133.131V95.7856C621.056 92.8482 620.846 89.9109 620.426 86.9736C620.426 80.9592 621.545 76.1336 623.783 72.497C626.021 68.8603 629.238 67.042 633.434 67.042C638.05 67.042 641.477 69.2799 643.715 73.7558C645.953 78.0918 647.351 85.505 647.911 95.9954L650.009 133.131C650.289 136.768 649.1 140.335 646.442 143.831C643.785 147.328 642.456 149.846 642.456 151.384V152.224C642.456 154.881 644.134 156.21 647.491 156.21H689.453C692.81 156.21 694.488 154.881 694.488 152.224V151.384C694.488 149.706 693.299 147.118 690.921 143.622ZM795.599 133.131C796.018 136.488 796.788 139.216 797.907 141.314C799.165 143.272 800.354 144.531 801.473 145.09C802.732 145.65 803.851 146.349 804.83 147.188C805.809 148.028 806.299 149.077 806.299 150.335C806.299 154.951 798.396 157.259 782.591 157.259C776.157 157.259 771.331 156.49 768.114 154.951C765.037 153.413 763.079 150.825 762.239 147.188C756.924 154.462 748.042 158.098 735.594 158.098C723.845 158.098 714.263 155.371 706.85 149.916C699.577 144.461 695.94 136.558 695.94 126.208C695.94 116.137 699.577 108.304 706.85 102.709C714.124 96.9745 723.075 94.1071 733.706 94.1071C741.958 94.1071 749.022 95.8555 754.896 99.3523V98.7228C753.497 84.8756 751.889 75.5042 750.071 70.6087C748.392 65.7132 745.035 63.2654 740 63.2654C736.783 63.2654 734.195 64.7341 732.237 67.6714C730.279 70.6087 728.81 73.8257 727.831 77.3225C726.992 80.8193 725.313 84.0363 722.796 86.9736C720.278 89.9109 716.921 91.3796 712.725 91.3796C708.389 91.3796 704.822 90.1208 702.025 87.6031C699.367 85.0854 698.038 81.7984 698.038 77.7421C698.038 69.6296 702.095 63.5452 710.207 59.4889C718.32 55.2928 728.251 53.1947 740 53.1947C753.987 53.1947 765.526 57.0412 774.618 64.7341C783.849 72.2872 789.305 82.5677 790.983 95.5757L795.599 133.131ZM747.133 147.398C750.35 147.398 752.938 145.86 754.896 142.782C756.994 139.705 758.043 136.208 758.043 132.292L757.204 122.641C755.805 111.032 751.469 105.227 744.196 105.227C740.979 105.227 738.391 106.556 736.433 109.213C734.475 111.731 733.496 115.158 733.496 119.494C733.496 127.327 734.685 133.97 737.062 139.425C739.58 144.741 742.937 147.398 747.133 147.398ZM893.756 59.0693C890.259 55.1529 885.504 53.1947 879.489 53.1947C864.943 53.1947 855.292 60.1183 850.536 73.9656V58.6497C850.536 56.2719 849.976 54.6634 848.857 53.8241C847.738 52.9849 845.78 53.0548 842.983 54.0339L813.4 67.8812C810.183 69.5597 808.574 71.5878 808.574 73.9656V74.595C808.574 76.2735 809.414 77.8121 811.092 79.2108C812.771 80.6095 814.449 82.288 816.128 84.2462C817.806 86.2044 818.645 88.5822 818.645 91.3796V133.131C818.645 136.628 817.246 140.125 814.449 143.622C811.652 146.978 810.253 149.496 810.253 151.175V152.014C810.253 154.671 811.931 156 815.288 156H860.397C863.754 156 865.432 154.671 865.432 152.014V151.175C865.432 149.496 863.544 146.978 859.767 143.622C856.131 140.125 854.312 136.628 854.312 133.131V94.1071C854.312 80.6794 856.9 73.9656 862.075 73.9656C864.313 73.9656 865.992 75.0146 867.111 77.1127C868.23 79.0709 868.929 81.3089 869.209 83.8265C869.628 86.3442 870.957 88.6521 873.195 90.7502C875.433 92.7084 878.72 93.6875 883.056 93.6875C893.826 93.6875 899.211 87.1135 899.211 73.9656C899.211 67.9511 897.393 62.9857 893.756 59.0693Z" fill="#132A13"/>
</svg>
